<?xml version="1.0" standalone="no"?>
<!DOCTYPE svg PUBLIC "-//W3C//DTD SVG 20010904//EN"
 "http://www.w3.org/TR/2001/REC-SVG-20010904/DTD/svg10.dtd">
<svg version="1.0" xmlns="http://www.w3.org/2000/svg"
 width="1500.000000pt" height="1403.000000pt" viewBox="0 0 1500.000000 1403.000000"
 preserveAspectRatio="xMidYMid meet">

<g transform="translate(0.000000,1403.000000) scale(0.100000,-0.100000)"
fill="#000000" stroke="none">
<path d="M7735 14023 c-746 -29 -1368 -136 -1700 -292 -174 -81 -317 -196
-400 -320 -56 -85 -81 -144 -107 -251 -26 -105 -27 -294 -4 -515 29 -271 17
-419 -41 -528 -51 -96 -213 -242 -394 -354 -75 -47 -246 -143 -255 -143 -3 0
4 12 14 28 78 109 62 282 -36 380 -87 86 -239 113 -347 62 -275 -133 -218
-536 82 -578 l48 -7 -75 -31 c-41 -18 -85 -35 -97 -38 -29 -9 -29 -18 2 -101
15 -38 24 -73 22 -79 -3 -6 -53 -38 -113 -70 -372 -202 -620 -392 -765 -588
-82 -109 -141 -270 -155 -416 -9 -100 -8 -100 -60 -52 -120 111 -304 134 -462
59 -120 -58 -254 -215 -308 -364 -15 -39 -27 -59 -36 -56 -63 19 -151 32 -190
27 l-46 -6 -51 128 -50 128 17 94 c12 72 16 158 16 355 1 249 0 265 -26 375
-48 202 -140 354 -249 411 -67 35 -193 33 -272 -4 -81 -37 -129 -78 -183 -152
-63 -89 -104 -198 -129 -339 l-6 -38 -16 23 c-75 111 -206 216 -320 259 -157
58 -326 24 -422 -85 -58 -66 -74 -116 -78 -245 -4 -114 2 -155 53 -330 7 -24
7 -24 -17 -9 -75 48 -207 75 -297 60 -212 -34 -318 -208 -267 -437 47 -217
174 -448 341 -624 46 -48 101 -99 122 -114 36 -25 40 -32 46 -85 10 -88 52
-235 97 -337 75 -171 178 -314 307 -425 72 -62 217 -135 302 -153 l65 -13 2
-64 c5 -111 40 -185 128 -268 66 -62 191 -124 289 -144 l69 -13 48 -145 c148
-453 382 -863 625 -1100 136 -132 250 -196 431 -241 69 -17 118 -22 228 -22
77 0 158 3 179 8 l39 7 -7 -47 c-3 -26 -9 -144 -12 -263 -37 -1285 452 -2529
1357 -3452 63 -64 155 -154 206 -200 l92 -84 -30 -105 c-192 -676 -293 -1180
-306 -1530 -11 -310 40 -473 171 -543 34 -18 57 -22 131 -22 77 0 99 4 149 28
264 122 499 438 885 1186 72 140 132 256 135 258 2 2 59 -19 127 -48 1205
-504 2575 -487 3765 47 67 29 126 54 130 54 5 0 39 -60 77 -133 240 -471 336
-645 473 -854 252 -382 472 -557 679 -541 125 10 202 78 246 218 27 84 37 335
20 506 -34 332 -135 797 -307 1406 -24 87 -44 162 -44 168 0 5 60 69 133 142
290 288 532 599 752 963 76 125 236 446 299 600 54 132 162 445 187 545 l12
45 17 -70 c9 -38 22 -81 27 -95 7 -17 6 -39 -3 -75 -21 -79 -27 -184 -15 -255
27 -148 112 -260 255 -330 134 -67 263 -67 412 0 l61 27 74 -25 c59 -20 100
-26 205 -30 351 -13 657 121 948 413 202 202 312 398 351 622 37 211 0 376
-108 485 -70 69 -143 101 -248 106 l-86 4 -12 53 c-24 106 -111 203 -207 231
-65 19 -144 15 -191 -10 -29 -15 -31 -14 -59 15 -16 17 -45 39 -66 50 -29 15
-37 26 -43 58 -18 110 -124 256 -285 396 -140 121 -289 255 -440 396 -178 166
-314 286 -472 417 -76 62 -138 120 -138 127 0 25 -92 300 -152 454 -70 177
-236 516 -333 676 -219 363 -432 634 -734 935 -193 193 -307 293 -498 437 -62
46 -113 87 -113 91 0 4 12 36 26 73 l26 67 257 -125 c798 -389 1287 -601 1396
-605 48 -2 80 29 120 117 38 81 67 193 92 350 25 159 25 564 0 689 -37 182
-104 309 -239 452 -142 150 -341 292 -633 454 -82 46 -152 85 -154 87 -2 1 10
40 27 85 17 45 30 82 29 83 -1 1 -47 19 -102 40 l-100 39 47 7 c101 15 198 90
241 187 31 71 28 174 -7 245 -53 110 -152 171 -276 172 -62 0 -85 -5 -132 -28
-111 -55 -173 -153 -173 -277 0 -71 7 -94 53 -182 7 -14 -185 95 -293 167
-193 128 -316 250 -366 360 -40 91 -48 238 -24 470 32 310 12 510 -68 670 -84
170 -263 348 -447 444 -347 181 -1160 296 -2045 289 -137 -1 -281 -3 -320 -5z
m995 -43 c627 -45 1081 -133 1333 -257 193 -95 366 -262 456 -440 76 -153 96
-336 67 -634 -39 -400 -12 -514 159 -684 145 -144 313 -255 605 -400 91 -45
208 -99 260 -120 52 -22 96 -39 97 -40 8 -4 -42 -115 -51 -115 -28 0 -188 69
-383 166 -290 143 -487 276 -636 428 -185 189 -223 351 -181 785 37 378 -1
549 -160 719 -165 177 -373 281 -711 356 -441 98 -1179 138 -1990 106 -873
-34 -1332 -130 -1611 -338 -149 -111 -246 -239 -289 -382 -26 -89 -30 -245
-10 -455 22 -236 17 -430 -14 -525 -56 -177 -225 -355 -498 -528 -164 -104
-633 -332 -684 -332 -14 0 -49 76 -49 106 0 6 42 28 93 49 230 94 515 248 692
373 102 73 252 223 288 290 58 107 70 263 41 543 -21 210 -21 404 1 499 78
340 356 554 888 685 320 78 736 132 1202 155 210 10 889 4 1085 -10z m120
-170 c588 -46 957 -126 1184 -255 91 -51 201 -139 257 -204 47 -55 101 -156
124 -231 25 -85 30 -252 11 -436 -20 -201 -20 -379 -1 -480 35 -182 148 -333
380 -507 44 -33 73 -57 65 -54 -77 29 -331 109 -390 122 -41 9 -143 19 -226
22 -130 5 -161 3 -232 -15 -216 -55 -495 -242 -756 -506 -60 -61 -107 -104
-104 -96 34 102 80 282 72 289 -9 10 -1086 322 -1091 317 -8 -8 -114 -389
-111 -398 2 -6 94 -37 204 -69 143 -41 198 -61 196 -70 -2 -8 -72 -163 -155
-346 l-152 -332 -125 -1 c-69 0 -188 -5 -265 -10 -730 -53 -1408 -260 -2034
-619 -78 -44 -145 -81 -149 -81 -5 0 -18 20 -30 45 l-22 45 63 31 c701 352
1441 771 1531 867 25 27 28 35 21 69 -41 222 -575 709 -913 833 -225 82 -490
58 -861 -79 -47 -17 -86 -30 -87 -28 -1 1 43 36 98 77 179 133 303 285 350
430 29 91 35 321 14 534 -29 287 -17 406 55 554 62 126 195 252 362 342 260
139 744 222 1457 250 272 11 1082 4 1260 -10z m-4173 -1735 c63 -19 134 -80
164 -143 52 -105 20 -246 -72 -325 -176 -151 -449 -30 -449 199 0 133 70 230
195 270 54 17 102 17 162 -1z m7000 -18 c93 -47 143 -131 142 -237 0 -36 -6
-82 -13 -102 -20 -57 -73 -116 -130 -146 -68 -36 -189 -38 -251 -5 -62 32
-121 103 -139 164 -20 65 -20 92 -1 155 27 93 108 172 198 195 54 14 139 3
194 -24z m-3342 -366 c677 -193 851 -244 859 -252 5 -5 -6 -63 -28 -141 -54
-192 -56 -198 -72 -198 -8 0 -241 65 -519 145 -278 80 -507 145 -509 145 -2 0
6 35 19 78 63 220 78 272 79 272 1 0 78 -22 171 -49z m-6380 -441 c110 -53
205 -229 246 -460 21 -116 19 -474 -5 -631 l-18 -126 51 -123 c28 -68 50 -124
48 -125 -1 -1 -24 -10 -52 -20 -128 -46 -232 -144 -294 -275 -43 -90 -39 -109
4 -22 67 132 169 221 310 267 100 34 224 33 292 -1 44 -22 53 -21 53 3 0 26
52 147 87 203 41 64 121 150 179 190 91 64 234 87 339 55 63 -18 146 -76 178
-123 25 -36 26 -43 29 -222 l3 -185 -56 -110 c-186 -368 -464 -691 -726 -846
l-42 -25 -78 38 c-115 56 -202 73 -363 72 -100 -1 -158 -7 -222 -22 -270 -66
-481 -211 -573 -395 -19 -39 -35 -76 -35 -83 0 -39 -165 10 -279 83 -226 145
-429 482 -472 785 -13 87 -14 88 -53 115 -57 37 -173 159 -239 252 -158 219
-257 500 -228 643 16 74 60 142 118 178 66 42 114 53 215 48 74 -4 96 -9 160
-41 41 -20 81 -44 90 -54 9 -10 44 -67 78 -128 73 -129 173 -277 240 -355 l48
-55 -41 -45 c-64 -72 -127 -160 -159 -225 -37 -74 -33 -70 30 26 97 148 239
276 405 364 157 84 273 118 472 140 l120 13 -135 -1 -135 -1 -32 105 c-43 146
-80 331 -94 479 -10 114 -10 133 9 221 36 175 130 332 236 394 95 56 207 65
291 25z m6613 -35 c34 -10 62 -23 62 -28 0 -5 -68 -148 -152 -318 l-151 -309
-84 0 c-46 0 -83 2 -83 4 0 2 20 46 44 97 50 106 206 446 243 528 18 40 28 52
41 48 9 -2 45 -13 80 -22z m320 -92 c108 -31 199 -58 200 -59 2 -1 -8 -22 -21
-46 -35 -59 -50 -120 -38 -151 27 -71 582 -393 1427 -827 l202 -104 -21 -55
c-11 -31 -22 -58 -23 -59 -1 -2 -65 33 -141 79 -163 97 -489 258 -658 324
-438 172 -933 288 -1363 320 -51 4 -92 11 -90 15 30 77 307 620 316 620 7 0
102 -26 210 -57z m-7862 -123 c81 -28 176 -93 242 -166 89 -96 107 -138 126
-284 21 -166 51 -313 87 -425 35 -110 35 -115 8 -115 -38 0 -202 -60 -279
-102 -41 -23 -102 -61 -134 -86 l-59 -46 -44 48 c-84 93 -223 307 -303 467
-85 168 -122 388 -86 511 54 188 237 270 442 198z m7409 -1010 c1573 -140
2945 -1166 3528 -2640 366 -927 390 -1949 67 -2895 -271 -792 -772 -1481
-1453 -1997 -577 -437 -1243 -708 -1992 -809 -192 -26 -647 -37 -850 -20 -801
66 -1550 348 -2179 821 -1119 840 -1739 2159 -1675 3562 59 1295 716 2494
1774 3234 346 243 774 454 1160 572 334 102 702 168 1050 186 103 5 444 -3
570 -14z m-2937 -115 c12 -25 22 -47 22 -49 0 -2 -27 -20 -61 -41 -49 -30 -63
-35 -70 -24 -14 21 -49 87 -49 93 0 7 111 65 126 66 5 0 20 -20 32 -45z m5255
14 c34 -17 64 -33 66 -35 5 -5 -40 -124 -50 -130 -5 -3 -36 14 -70 36 -46 32
-59 46 -54 58 4 10 14 36 22 60 8 23 17 42 19 42 3 0 33 -14 67 -31z m-5412
-109 l29 -55 -22 -15 c-12 -8 -69 -50 -127 -94 -852 -636 -1488 -1575 -1749
-2581 l-39 -149 -49 -13 c-244 -64 -406 -28 -566 125 -172 164 -290 404 -353
713 -14 70 -25 135 -25 146 0 13 20 33 55 57 88 61 182 169 224 255 34 72 36
82 36 176 0 89 -3 106 -28 157 -16 32 -48 78 -73 104 -25 25 -44 47 -42 49 2
1 23 15 48 30 247 153 528 475 696 800 l62 119 7 -39 c43 -263 101 -421 166
-455 33 -18 94 -6 231 46 266 101 931 407 1363 627 61 31 114 55 119 54 4 -2
21 -27 37 -57z m5629 -895 c30 -30 52 -55 49 -55 -2 0 -29 25 -59 55 -30 30
-52 55 -49 55 2 0 29 -25 59 -55z m289 -300 c570 -655 911 -1426 1017 -2300
22 -185 29 -566 15 -765 -56 -750 -293 -1443 -701 -2051 -33 -49 -63 -89 -66
-89 -2 0 22 39 54 88 580 864 817 1922 666 2962 -125 855 -521 1666 -1118
2290 -68 71 -73 78 -23 30 38 -36 108 -110 156 -165z m-8899 144 c109 -28 196
-74 260 -138 83 -83 105 -135 105 -247 0 -84 -2 -95 -38 -167 -25 -51 -59 -98
-101 -141 -66 -66 -142 -123 -152 -113 -3 3 -8 70 -11 149 -3 82 -10 149 -17
157 -54 68 -324 85 -488 31 -78 -26 -163 -81 -187 -121 -17 -27 -17 -36 -4
-117 7 -48 22 -122 32 -165 l18 -78 -41 7 c-159 26 -309 125 -373 246 -25 47
-28 63 -28 148 0 88 3 101 33 163 148 299 614 481 992 386z m10605 -2967 c61
-36 129 -78 152 -95 l42 -29 -64 -79 c-110 -135 -200 -278 -302 -479 -29 -58
-53 -100 -53 -95 0 6 7 51 15 100 26 166 46 379 52 572 6 191 6 192 27 181 12
-6 71 -40 131 -76z m1057 -99 c49 -41 49 -43 13 -86 -70 -81 -100 -239 -93
-488 l4 -159 -46 6 c-51 7 -168 -9 -230 -30 -33 -11 -40 -11 -44 1 -12 31 -4
53 55 142 136 206 243 428 277 574 9 37 19 67 23 67 4 0 22 -12 41 -27z m294
-38 c27 -8 66 -28 86 -45 40 -33 95 -134 104 -191 6 -33 4 -37 -21 -43 -32 -8
-116 -85 -146 -132 -51 -84 -88 -220 -104 -386 l-7 -67 -49 49 c-42 42 -157
110 -187 110 -14 0 -26 215 -18 330 13 201 59 309 151 358 64 33 120 38 191
17z m447 -318 c234 -115 271 -464 86 -817 -83 -158 -249 -342 -437 -483 -221
-166 -475 -248 -726 -234 -101 5 -236 32 -236 47 0 5 16 18 34 30 49 29 164
156 205 224 61 102 83 178 89 305 7 172 -29 292 -124 413 l-44 56 42 16 c79
28 122 36 205 36 145 0 260 -54 338 -160 29 -39 38 -64 51 -137 8 -48 21 -110
29 -138 l15 -50 -5 50 c-3 28 -9 95 -15 150 -12 117 1 296 30 410 38 148 121
265 213 299 65 24 181 16 250 -17z m-1173 -431 c-14 -14 -22 -2 -14 18 5 14 9
15 15 4 4 -7 4 -17 -1 -22z m45 -113 c122 -160 149 -386 69 -584 -107 -263
-409 -463 -635 -421 -168 31 -298 142 -343 292 -25 84 -19 301 8 293 4 -1 21
-22 39 -45 47 -62 87 -80 172 -76 96 5 186 48 263 125 67 67 93 118 100 188 4
45 11 56 66 115 34 36 86 95 115 133 l53 67 29 -21 c16 -11 45 -41 64 -66z
m-2122 -1405 c-6 -7 -44 -58 -85 -113 -41 -55 -94 -120 -118 -145 -37 -39 -36
-37 7 15 27 33 82 104 123 158 40 53 75 97 77 97 3 0 1 -6 -4 -12z m-283 -353
c-24 -25 -46 -45 -49 -45 -3 0 15 20 39 45 24 25 46 45 49 45 3 0 -15 -20 -39
-45z m-50 -58 c0 -1 -48 -50 -107 -107 l-108 -105 105 108 c97 99 110 112 110
104z"/>
<path d="M1833 10013 c9 -2 23 -2 30 0 6 3 -1 5 -18 5 -16 0 -22 -2 -12 -5z"/>
<path d="M7868 9938 c-22 -13 -38 -30 -38 -40 0 -22 3 -22 40 -3 l30 16 0
-161 0 -160 25 0 25 0 0 185 0 185 -22 0 c-13 0 -40 -10 -60 -22z"/>
<path d="M8118 9945 c-19 -11 -25 -20 -21 -35 5 -18 7 -18 34 -5 31 16 77 19
97 7 7 -5 16 -22 21 -39 13 -46 -15 -97 -97 -178 -103 -100 -100 -105 48 -105
113 0 120 1 120 20 0 18 -7 20 -80 20 -44 0 -80 3 -80 8 0 4 18 24 40 45 57
53 97 111 104 152 9 44 -15 98 -50 114 -34 15 -103 13 -136 -4z"/>
<path d="M5922 9407 c-28 -14 -42 -27 -42 -40 0 -19 10 -20 53 -2 16 7 17 -4
17 -149 l0 -156 25 0 25 0 0 179 c0 203 -1 205 -78 168z"/>
<path d="M8010 9295 l0 -135 50 0 50 0 0 135 0 135 -50 0 -50 0 0 -135z"/>
<path d="M10022 9407 c-26 -13 -42 -28 -42 -39 0 -19 25 -25 35 -8 3 6 13 10
21 10 12 0 14 -27 14 -155 l0 -155 25 0 25 0 0 179 c0 203 -1 205 -78 168z"/>
<path d="M6203 9403 c-19 -10 -33 -24 -33 -35 0 -19 25 -25 35 -8 3 6 13 10
21 10 12 0 14 -27 14 -155 l0 -155 25 0 25 0 0 180 0 180 -27 -1 c-16 0 -43
-8 -60 -16z"/>
<path d="M9796 8938 c-64 -103 -116 -202 -109 -208 4 -4 24 -17 44 -28 l36
-22 67 116 c37 64 66 117 64 118 -16 12 -77 46 -81 46 -4 0 -13 -10 -21 -22z"/>
<path d="M9014 8941 c-34 -9 -123 -51 -130 -63 -3 -4 10 -8 28 -8 163 0 491
-193 756 -444 39 -38 72 -64 72 -59 0 14 -98 170 -158 251 -176 241 -394 364
-568 323z"/>
<path d="M6228 8917 c-21 -12 -38 -26 -38 -31 0 -4 29 -57 65 -117 l66 -108
44 27 c25 15 44 29 43 32 -12 25 -134 220 -138 220 -3 -1 -22 -11 -42 -23z"/>
<path d="M6784 8891 c-127 -47 -248 -147 -371 -306 -35 -46 -163 -251 -163
-262 0 -4 28 20 63 53 147 144 360 300 510 375 113 58 151 70 235 77 l73 7
-63 35 c-55 30 -73 34 -148 37 -65 3 -97 -1 -136 -16z"/>
<path d="M6950 8456 c-221 -51 -418 -224 -543 -477 -54 -110 -80 -187 -110
-318 -29 -132 -31 -452 -4 -581 24 -110 60 -217 102 -302 18 -37 30 -70 27
-72 -4 -2 -148 -23 -320 -47 -172 -24 -317 -46 -323 -50 -6 -3 56 -156 157
-385 92 -208 169 -381 170 -383 4 -5 104 -14 824 -76 355 -30 675 -57 712 -61
62 -5 67 -8 73 -33 8 -37 72 -119 122 -157 110 -84 260 -98 385 -36 78 38 158
119 184 187 11 30 24 47 38 50 12 3 167 37 346 75 179 39 426 93 550 120 124
27 443 97 710 155 267 58 535 117 596 132 l112 26 100 116 c54 64 190 221 301
349 112 129 201 236 198 238 -2 2 -215 23 -473 46 l-469 41 -543 -271 -542
-272 43 53 c174 213 267 502 267 828 0 355 -114 657 -323 856 -134 127 -268
183 -438 183 -276 0 -517 -179 -674 -501 -93 -190 -129 -361 -129 -604 0 -246
37 -415 135 -605 134 -263 339 -419 578 -439 l76 -7 -237 -119 -237 -119 -22
29 c-42 55 -94 98 -145 122 -158 72 -319 41 -437 -87 l-55 -58 -63 42 c-35 23
-153 98 -261 166 -109 68 -195 126 -192 129 3 3 25 13 49 22 124 47 298 206
387 355 194 321 242 775 122 1139 -143 432 -482 679 -824 601z m282 -42 c412
-123 661 -699 548 -1265 -54 -267 -186 -510 -349 -646 -63 -52 -202 -128 -247
-135 -14 -2 -122 60 -311 179 l-291 183 -57 -11 c-31 -6 -58 -9 -60 -7 -17 20
-80 165 -104 243 -102 329 -75 692 73 1000 62 128 118 206 215 298 172 162
383 220 583 161z m1776 -69 c270 -64 487 -330 573 -705 32 -136 36 -365 11
-515 -39 -227 -110 -402 -226 -556 -84 -111 -123 -142 -286 -225 l-135 -69
-110 1 c-89 0 -122 4 -175 23 -141 49 -264 149 -355 286 -137 206 -198 421
-198 700 0 345 110 650 307 853 179 185 384 256 594 207z m1452 -1509 c0 -20
-319 -188 -620 -326 -482 -221 -1302 -561 -1317 -546 -3 3 452 231 692 346
522 251 1010 464 1170 511 65 19 75 21 75 15z m-3638 -389 c247 -126 675 -378
758 -447 l25 -21 -25 6 c-42 10 -367 172 -515 257 -130 74 -357 221 -415 267
-53 43 11 20 172 -62z"/>
<path d="M6939 7772 c-151 -50 -278 -203 -330 -399 -28 -102 -30 -279 -5 -373
43 -164 148 -306 270 -365 77 -38 189 -46 267 -20 124 42 224 135 289 270 50
104 70 199 70 328 0 319 -185 566 -430 574 -52 2 -92 -3 -131 -15z m142 -146
c121 -80 69 -259 -80 -274 -182 -17 -252 203 -91 286 55 28 116 24 171 -12z
m-111 -342 c55 -53 13 -144 -66 -144 -46 0 -70 14 -89 50 -21 40 -19 54 10 89
40 46 99 49 145 5z"/>
<path d="M8792 7709 c-162 -32 -304 -176 -368 -374 -38 -117 -45 -289 -15
-405 27 -111 68 -192 130 -261 169 -189 408 -195 586 -15 117 119 178 282 179
476 1 138 -12 196 -69 315 -71 147 -180 240 -314 265 -60 11 -69 11 -129 -1z
m72 -149 c55 -27 79 -63 84 -124 3 -41 -1 -58 -20 -85 -82 -122 -282 -87 -305
53 -7 47 2 78 34 117 51 60 133 76 207 39z m-87 -355 c30 -34 29 -77 -1 -112
-20 -23 -32 -28 -71 -28 -39 0 -51 5 -71 28 -35 41 -32 88 8 122 27 23 39 26
72 22 27 -4 49 -15 63 -32z"/>
<path d="M4825 8010 c-30 -12 -61 -51 -75 -94 -16 -50 -8 -171 14 -214 36 -69
130 -80 180 -22 47 56 57 199 19 273 -26 51 -89 78 -138 57z m60 -36 c30 -12
48 -65 49 -144 0 -109 -31 -161 -86 -147 -71 18 -79 246 -11 286 21 12 26 13
48 5z"/>
<path d="M11353 8005 c-31 -13 -42 -33 -27 -48 4 -3 19 0 35 8 95 50 157 -40
90 -131 -16 -21 -54 -64 -85 -94 -85 -83 -80 -90 59 -90 108 0 115 1 115 20 0
18 -7 20 -82 20 l-81 0 60 63 c68 70 93 113 93 156 0 91 -84 137 -177 96z"/>
<path d="M4528 7989 c-36 -18 -48 -41 -29 -53 4 -3 17 1 27 9 10 8 22 15 27
15 4 0 7 -70 7 -155 l0 -155 25 0 25 0 0 180 0 180 -22 0 c-13 -1 -40 -10 -60
-21z"/>
<path d="M10948 7684 l-108 -65 27 -42 c14 -23 27 -43 28 -45 1 -2 214 125
224 133 6 7 -43 85 -53 85 -6 -1 -59 -30 -118 -66z"/>
<path d="M5005 7680 c-14 -22 -23 -45 -20 -49 10 -18 218 -132 225 -124 4 4
16 24 28 44 l21 35 -92 54 c-51 30 -102 60 -114 68 -20 13 -23 11 -48 -28z"/>
<path d="M4072 6054 c-74 -38 -89 -154 -25 -204 31 -24 99 -27 131 -4 27 19
27 14 1 -37 -20 -40 -79 -78 -121 -79 -11 0 -18 -8 -18 -20 0 -24 27 -26 83
-6 52 19 76 42 103 101 40 84 29 192 -24 238 -29 26 -90 31 -130 11z m83 -30
c21 -9 45 -56 45 -92 0 -77 -115 -92 -140 -18 -23 71 31 134 95 110z"/>
<path d="M11898 6057 c-51 -20 -31 -54 21 -36 42 15 79 4 93 -26 16 -37 -11
-73 -62 -81 -30 -5 -40 -11 -40 -25 0 -15 8 -19 38 -19 76 0 111 -76 55 -120
-28 -22 -58 -23 -120 -4 -19 5 -23 2 -23 -14 0 -14 10 -24 31 -31 95 -33 189
16 189 97 0 43 -14 68 -48 86 -24 13 -25 15 -9 21 27 11 49 62 42 96 -13 57
-96 84 -167 56z"/>
<path d="M4510 5880 l0 -50 135 0 135 0 0 50 0 50 -135 0 -135 0 0 -50z"/>
<path d="M11340 5880 l0 -50 135 0 135 0 0 50 0 50 -135 0 -135 0 0 -50z"/>
<path d="M5222 5636 c106 -101 284 -184 438 -203 l65 -8 36 -136 c140 -532
405 -1045 740 -1434 443 -515 1001 -769 1588 -725 633 48 1137 356 1516 925
212 319 375 719 446 1100 12 61 23 116 25 123 2 8 27 12 78 12 91 0 206 21
278 51 59 25 178 105 178 120 0 5 -18 -4 -40 -20 -242 -175 -759 -132 -1027
86 -50 40 -54 42 -30 14 79 -95 224 -179 374 -217 52 -13 106 -24 119 -24 13
0 24 -4 24 -8 0 -16 -160 -113 -281 -171 -413 -198 -1039 -303 -1714 -288
-282 7 -416 17 -653 47 -612 80 -1191 262 -1537 484 l-80 51 106 7 c171 12
332 76 409 164 l25 28 -38 -28 c-54 -40 -151 -81 -232 -99 -270 -61 -573 -1
-803 159 l-67 46 57 -56z m1234 -585 c353 -117 687 -183 1174 -233 195 -20
884 -17 1078 5 349 40 697 117 905 202 25 10 23 -30 -8 -151 -96 -380 -347
-565 -885 -653 -240 -39 -528 -50 -810 -31 -562 39 -1131 175 -1323 316 -96
70 -206 265 -286 503 -31 93 -33 101 -28 101 2 0 84 -27 183 -59z m2002 -1258
c-10 -2 -28 -2 -40 0 -13 2 -5 4 17 4 22 1 32 -1 23 -4z m65 0 c-7 -2 -21 -2
-30 0 -10 3 -4 5 12 5 17 0 24 -2 18 -5z m44 -15 c-3 -8 -6 -5 -6 6 -1 11 2
17 5 13 3 -3 4 -12 1 -19z m-879 -15 c-10 -2 -26 -2 -35 0 -10 3 -2 5 17 5 19
0 27 -2 18 -5z m608 -21 c-2 -1 -16 0 -31 4 -18 4 -23 9 -14 14 11 7 53 -9 45
-18z m-756 8 c-25 -8 -25 -8 5 -10 24 -2 25 -4 8 -7 -12 -2 -33 2 -48 9 -25
14 -25 14 17 15 35 0 38 -1 18 -7z m1047 -12 c-3 -8 -6 -5 -6 6 -1 11 2 17 5
13 3 -3 4 -12 1 -19z m-1137 2 c-12 -8 -12 -10 -1 -10 8 0 12 -3 8 -6 -9 -9
-28 6 -22 17 4 5 12 9 18 9 7 0 6 -4 -3 -10z m213 3 c-13 -2 -33 -2 -45 0 -13
2 -3 4 22 4 25 0 35 -2 23 -4z m167 -3 c13 -9 13 -10 0 -9 -8 1 -26 5 -40 9
l-25 8 25 1 c14 0 32 -4 40 -9z m381 1 c-11 -7 -6 -12 20 -19 19 -6 26 -11 17
-11 -9 -1 -29 4 -45 10 -22 8 -24 12 -13 19 8 6 20 10 25 10 6 0 4 -4 -4 -9z
m-443 -10 c11 -7 10 -9 -3 -14 -9 -4 -14 -3 -10 2 3 5 -1 12 -7 14 -7 3 -8 6
-3 6 6 0 16 -3 23 -8z m489 3 c-3 -3 -12 -4 -19 -1 -8 3 -5 6 6 6 11 1 17 -2
13 -5z m63 -4 c0 -5 -12 -10 -27 -9 l-28 1 25 8 c14 4 26 8 28 9 1 1 2 -3 2
-9z m-907 -7 c-7 -2 -19 -2 -25 0 -7 3 -2 5 12 5 14 0 19 -2 13 -5z m300 0
c-7 -2 -19 -2 -25 0 -7 3 -2 5 12 5 14 0 19 -2 13 -5z m447 3 c0 -2 -11 -11
-25 -20 -14 -9 -25 -13 -25 -8 0 5 10 14 23 20 27 13 27 13 27 8z m-191 -47
c-22 -13 -31 -11 -17 5 7 8 17 12 22 9 4 -3 2 -9 -5 -14z m-650 7 c-2 -2 -17
-6 -34 -10 -22 -5 -26 -4 -15 4 14 9 59 15 49 6z m765 -11 c-10 -8 -23 -15
-28 -15 -6 0 -1 7 10 15 10 8 23 15 28 15 6 0 1 -7 -10 -15z m-44 -27 c0 -14
-16 -9 -36 13 -19 21 -19 21 9 8 15 -7 27 -16 27 -21z m100 22 c-8 -5 -19 -10
-25 -10 -5 0 -3 5 5 10 8 5 20 10 25 10 6 0 3 -5 -5 -10z m-900 -10 c-13 -8
-12 -10 4 -10 11 0 17 -3 13 -6 -3 -4 -13 -4 -22 0 -18 6 -11 26 8 26 7 0 6
-4 -3 -10z m-25 -28 c-3 -3 -11 0 -18 7 -9 10 -8 11 6 5 10 -3 15 -9 12 -12z
m789 10 c2 -4 -7 -8 -22 -9 -24 -2 -24 -1 -7 7 11 5 21 9 22 9 1 1 4 -3 7 -7z
m146 -2 c-8 -5 -19 -10 -25 -10 -5 0 -3 5 5 10 8 5 20 10 25 10 6 0 3 -5 -5
-10z m-817 -7 c-7 -2 -19 -2 -25 0 -7 3 -2 5 12 5 14 0 19 -2 13 -5z m-193
-62 c3 -2 -2 -2 -11 2 -9 3 -23 0 -30 -6 -11 -10 -11 -9 -1 4 6 9 8 20 4 25
-6 7 24 -12 38 -25z m-63 -6 c0 -8 -4 -12 -9 -9 -5 3 -6 10 -3 15 9 13 12 11
12 -6z m1463 -10 c0 -8 -4 -15 -10 -15 -5 0 -7 7 -4 15 4 8 8 15 10 15 2 0 4
-7 4 -15z m-1383 -1 c-3 -3 -12 -4 -19 -1 -8 3 -5 6 6 6 11 1 17 -2 13 -5z
m-138 -27 c-2 -1 -13 -9 -24 -17 -19 -14 -19 -14 -6 3 7 9 18 17 24 17 6 0 8
-1 6 -3z m1468 -29 c-3 -8 -6 -5 -6 6 -1 11 2 17 5 13 3 -3 4 -12 1 -19z
m-1454 -17 c-2 -11 1 -20 5 -18 14 4 83 -43 77 -53 -10 -17 -25 -11 -18 6 5
14 2 16 -23 10 -17 -4 -24 -3 -16 2 10 7 10 11 -3 22 -14 11 -19 7 -16 -13 1
-5 -3 -6 -9 -2 -6 3 -7 11 -4 17 5 8 1 9 -11 4 -18 -7 -18 -6 0 14 17 18 17
23 5 31 -13 9 -13 10 0 6 8 -2 14 -14 13 -26z m-33 5 c0 -3 -4 -8 -10 -11 -5
-3 -10 -1 -10 4 0 6 5 11 10 11 6 0 10 -2 10 -4z m106 -32 c18 -14 18 -14 -6
-3 -31 14 -36 19 -24 19 6 0 19 -7 30 -16z m1344 -24 c0 -5 -4 -10 -10 -10 -5
0 -10 5 -10 10 0 6 5 10 10 10 6 0 10 -4 10 -10z m-21 -33 c-2 -1 -13 -9 -24
-17 -19 -14 -19 -14 -6 3 7 9 18 17 24 17 6 0 8 -1 6 -3z m-1259 -27 c13 -11
28 -20 33 -20 6 0 7 -3 4 -6 -4 -4 -19 2 -34 12 -15 11 -35 22 -43 26 -13 6
-13 7 1 7 9 1 26 -8 39 -19z m75 0 c-11 -5 -27 -9 -35 -9 -9 0 -8 4 5 9 11 5
27 9 35 9 9 0 8 -4 -5 -9z m32 -16 c-3 -3 -12 -4 -19 -1 -8 3 -5 6 6 6 11 1
17 -2 13 -5z m-27 -24 c8 -5 11 -10 5 -10 -5 0 -17 5 -25 10 -8 5 -10 10 -5
10 6 0 17 -5 25 -10z m61 -30 c12 -7 25 -7 37 -1 14 7 19 6 19 -3 0 -15 -44
-14 -72 2 -25 14 -11 16 16 2z m119 -10 c18 -12 2 -12 -25 0 -13 6 -15 9 -5 9
8 0 22 -4 30 -9z m-20 -20 c8 -5 11 -10 5 -10 -5 0 -17 5 -25 10 -8 5 -10 10
-5 10 6 0 17 -5 25 -10z m66 -25 c10 -8 15 -14 9 -14 -5 0 -19 6 -29 14 -11 8
-15 15 -10 15 6 0 19 -7 30 -15z m104 -31 c0 -2 -7 -4 -15 -4 -8 0 -15 4 -15
10 0 5 7 7 15 4 8 -4 15 -8 15 -10z m280 12 c0 -2 -7 -7 -16 -10 -8 -3 -12 -2
-9 4 6 10 25 14 25 6z m227 -2 c-3 -3 -12 -4 -19 -1 -8 3 -5 6 6 6 11 1 17 -2
13 -5z m-393 -13 c11 -4 -4 -7 -37 -7 -30 1 -53 4 -50 9 5 9 62 8 87 -2z m63
3 c-3 -3 -12 -4 -19 -1 -8 3 -5 6 6 6 11 1 17 -2 13 -5z m183 -13 c0 -6 -17
-7 -37 -4 -52 8 -54 13 -5 13 23 0 42 -4 42 -9z m-283 -7 c-3 -3 -12 -4 -19
-1 -8 3 -5 6 6 6 11 1 17 -2 13 -5z m96 -11 c-7 -2 -19 -2 -25 0 -7 3 -2 5 12
5 14 0 19 -2 13 -5z"/>
<path d="M10889 4219 c-17 -34 -18 -44 -7 -54 13 -11 203 -125 210 -125 6 0
52 89 48 93 -13 9 -219 127 -224 127 -3 0 -15 -19 -27 -41z"/>
<path d="M5120 4168 c-52 -32 -101 -63 -109 -67 -11 -7 -9 -16 10 -49 13 -23
28 -42 33 -42 4 0 57 29 116 65 l108 65 -25 45 c-13 25 -28 45 -31 44 -4 -1
-50 -28 -102 -61z"/>
<path d="M4663 4053 c-31 -6 -73 -59 -73 -93 0 -16 11 -42 25 -58 l25 -30 -24
-15 c-57 -38 -49 -128 14 -160 54 -28 126 -18 162 22 39 44 38 92 -2 133 l-30
30 25 30 c29 34 31 57 10 97 -20 40 -69 56 -132 44z m79 -50 c24 -21 23 -58
-2 -83 -24 -24 -48 -25 -78 -4 -26 18 -30 65 -6 88 20 21 63 20 86 -1z m-13
-158 c69 -35 49 -125 -27 -125 -46 0 -72 24 -72 66 0 23 7 38 26 53 32 25 37
25 73 6z"/>
<path d="M11371 3935 c-45 -64 -81 -122 -81 -130 0 -12 17 -15 85 -15 l85 0 0
-50 c0 -47 2 -50 25 -50 23 0 25 3 25 50 0 47 2 50 25 50 16 0 25 6 25 15 0 9
-9 15 -25 15 l-25 0 0 115 0 115 -29 0 c-27 0 -39 -13 -110 -115z m85 -101
c-6 -15 -106 -18 -106 -3 0 6 17 33 38 62 21 29 45 63 53 77 13 23 14 21 17
-49 2 -41 1 -80 -2 -87z"/>
<path d="M9753 3071 l-43 -27 67 -109 c36 -61 68 -112 69 -114 5 -6 84 43 84
52 0 8 -129 228 -133 226 -1 0 -21 -13 -44 -28z"/>
<path d="M6287 2963 c-38 -63 -67 -116 -65 -117 27 -20 81 -45 88 -41 4 3 36
53 70 112 69 117 69 111 0 148 -25 13 -26 11 -93 -102z"/>
<path d="M8820 3016 c-81 -80 -289 -179 -445 -212 -272 -59 -712 12 -952 153
-67 39 -50 19 28 -32 144 -96 331 -155 559 -175 276 -25 501 26 692 159 40 27
91 68 113 91 42 43 46 56 5 16z"/>
<path d="M10076 2673 c-3 -16 -8 -54 -12 -85 l-6 -58 51 0 c42 0 57 -5 76 -25
26 -25 32 -63 15 -95 -12 -22 -72 -44 -100 -36 -11 3 -29 9 -41 12 -17 5 -20
2 -17 -17 2 -18 12 -26 41 -32 56 -13 106 0 144 38 27 27 33 41 33 77 0 71
-50 118 -126 118 -29 0 -35 3 -30 16 3 9 6 29 6 45 l0 29 70 0 c63 0 70 2 70
20 0 18 -7 20 -84 20 -84 0 -84 0 -90 -27z"/>
<path d="M6000 2610 c0 -18 7 -20 86 -20 102 0 102 16 3 -182 l-69 -138 27 0
c26 1 33 12 106 166 42 90 77 171 77 179 0 12 -21 15 -115 15 -108 0 -115 -1
-115 -20z"/>
<path d="M8010 2465 l0 -135 50 0 50 0 0 135 0 135 -50 0 -50 0 0 -135z"/>
<path d="M8089 2086 c-107 -29 -154 -99 -147 -222 3 -73 5 -77 41 -110 30 -28
45 -34 81 -34 112 0 164 142 81 220 -32 30 -105 32 -135 5 -27 -24 -26 -3 0
40 22 36 73 65 114 65 21 0 26 5 26 25 0 28 1 28 -61 11z m5 -168 c17 -7 29
-24 36 -46 25 -91 -69 -153 -122 -81 -29 39 -27 88 6 116 31 26 44 28 80 11z"/>
</g>
</svg>
